<svg width="48" height="22" viewBox="0 0 48 22" fill="none" xmlns="http://www.w3.org/2000/svg">
<path fill-rule="evenodd" clip-rule="evenodd" d="M2.76169 9.20983C1.97476 9.65241 1.24559 9.88825 0.659747 9.9252H0.5L0.5 9.93035C0.223858 9.93035 0 10.1542 0 10.4304C0 10.7065 0.223858 10.9304 0.5 10.9304C0.5623 10.9304 0.625263 10.9286 0.688832 10.9252H0.922783C0.946314 10.9286 0.970374 10.9304 0.994845 10.9304C1.33487 10.9304 1.9477 11.1516 2.72629 11.6738C3.48191 12.1806 4.32573 12.9253 5.11464 13.8605C6.69582 15.7349 8.01426 18.3223 8.01426 21.2205H9.01426C9.01426 18.0193 7.56268 15.2116 5.879 13.2157C5.07552 12.2633 4.20961 11.4839 3.40338 10.9252L48.0052 10.9252V9.9252L3.51909 9.9252C4.38669 9.39849 5.25981 8.6793 6.04616 7.80421C7.77897 5.87586 9.12329 3.15146 9.01396 0L8.01456 0.0346722C8.11303 2.87299 6.90249 5.3551 5.30235 7.13582C4.50303 8.02533 3.61471 8.73008 2.76169 9.20983Z" fill="#4D4D4B"/>
<path fill-rule="evenodd" clip-rule="evenodd" d="M2.76169 9.20983C1.97476 9.65241 1.24559 9.88825 0.659747 9.9252H0.5L0.5 9.93035C0.223858 9.93035 0 10.1542 0 10.4304C0 10.7065 0.223858 10.9304 0.5 10.9304C0.5623 10.9304 0.625263 10.9286 0.688832 10.9252H0.922783C0.946314 10.9286 0.970374 10.9304 0.994845 10.9304C1.33487 10.9304 1.9477 11.1516 2.72629 11.6738C3.48191 12.1806 4.32573 12.9253 5.11464 13.8605C6.69582 15.7349 8.01426 18.3223 8.01426 21.2205H9.01426C9.01426 18.0193 7.56268 15.2116 5.879 13.2157C5.07552 12.2633 4.20961 11.4839 3.40338 10.9252L48.0052 10.9252V9.9252L3.51909 9.9252C4.38669 9.39849 5.25981 8.6793 6.04616 7.80421C7.77897 5.87586 9.12329 3.15146 9.01396 0L8.01456 0.0346722C8.11303 2.87299 6.90249 5.3551 5.30235 7.13582C4.50303 8.02533 3.61471 8.73008 2.76169 9.20983Z" fill="white"/>
</svg>
